# xmcd
#
# Track frame offsets: 
#        150
#        13993
#        28492
#        45873
#        63417
#        80045
#        95880
#        111233
#        127564
#
# Disc length: 1881 seconds
#
# Revision: 0
# Processed by: cddbd v1.5.2PL0 Copyright (c) Steve Scherf et al.
# Submitted via: ExactAudioCopy v0.99pb4
#
DISCID=75075709
DTITLE=Lorrie Morgan - Leave the Light On
DYEAR=1989
DGENRE=Corporate Country
TTITLE0=Trainwreck of Emotion
TTITLE1=Out of Your Shoes
TTITLE2=I'll Take the Memories
TTITLE3=Far Side of the Bed
TTITLE4=Dear Me
TTITLE5=Five Minutes
TTITLE6=He Talks to Me
TTITLE7=It's Too Late (To Love Me Now)
TTITLE8=Gonna Leave the Light On
EXTD=
EXTT0=
EXTT1=
EXTT2=
EXTT3=
EXTT4=
EXTT5=
EXTT6=
EXTT7=
EXTT8=
PLAYORDER=
